<svg xmlns="http://www.w3.org/2000/svg" width="256" height="256" viewBox="0 0 100 100">
	<rect width="100" height="100" rx="20" fill="#ffffff"></rect>
	<path d="M14.95 33.98Q15.49 25.61 21.38 20.93Q27.28 16.25 36.45 16.25L36.45 16.25Q42.76 16.25 47.34 18.50Q51.94 20.75 54.27 24.62Q56.62 28.49 56.62 33.35L56.62 33.35Q56.62 38.93 53.65 42.89Q50.67 46.85 46.53 48.20L46.53 48.20L46.53 48.56Q51.84 50.18 54.81 54.45Q57.78 58.73 57.78 65.39L57.78 65.39Q57.78 70.70 55.35 74.84Q52.92 78.98 48.16 81.36Q43.38 83.75 36.73 83.75L36.73 83.75Q27.01 83.75 20.75 78.75Q14.50 73.76 14.05 64.40L14.05 64.40L23.95 64.40Q24.30 69.17 27.64 72.19Q30.96 75.20 36.64 75.20L36.64 75.20Q42.13 75.20 45.09 72.19Q48.06 69.17 48.06 64.40L48.06 64.40Q48.06 58.10 44.06 55.45Q40.05 52.79 31.78 52.79L31.78 52.79L29.44 52.79L29.44 44.33L31.87 44.33Q39.16 44.24 42.98 41.90Q46.80 39.56 46.80 34.52L46.80 34.52Q46.80 30.20 44.02 27.64Q41.23 25.07 36.09 25.07L36.09 25.07Q31.05 25.07 28.27 27.64Q25.48 30.20 24.94 33.98L24.94 33.98L14.95 33.98ZM75.61 27.14L67.23 27.14L67.23 17.78L85.95 17.78L85.95 83.39L75.61 83.39L75.61 27.14Z" fill="#1b1b1b"></path>
</svg>