<svg xmlns="http://www.w3.org/2000/svg">
	<defs>
		<symbol id="star" viewBox="0 0 32 32">
			<path d="M31.547 12a.848.848 0 00-.677-.577l-9.427-1.376-4.224-8.532a.847.847 0 00-1.516 0l-4.218 8.534-9.427 1.355a.847.847 0 00-.467 1.467l6.823 6.664-1.612 9.375a.847.847 0 001.23.893l8.428-4.434 8.432 4.432a.847.847 0 001.229-.894l-1.615-9.373 6.822-6.665a.845.845 0 00.214-.869z" />
		</symbol>
		<symbol id="plus" viewBox="0 0 768 768">
			<path d="M48 432h287.999v287.999c0 26.496 21.504 48 48 48s48-21.504 48-48v-287.999h287.999c26.496 0 48-21.504 48-48s-21.504-48-48-48h-287.999v-287.999c0-26.496-21.504-48-48-48s-48 21.504-48 48v287.999h-287.999c-26.496 0-48 21.504-48 48s21.504 48 48 48z" />
		</symbol>
		<symbol id="chevron-down" viewBox="0 0 768 768">
			<path d="M16.078 258.214l329.139 329.139c21.449 21.449 56.174 21.449 77.567 0l329.139-329.139c21.449-21.449 21.449-56.174 0-77.567s-56.174-21.449-77.567 0l-290.356 290.356-290.356-290.356c-21.449-21.449-56.173-21.449-77.567 0s-21.449 56.173 0 77.567z" />
		</symbol>
		<symbol id="sort" viewBox="0 0 24 24">
			<path d="M3 12.984v-1.969h12v1.969h-12zM3 6h18v2.016h-18v-2.016zM3 18v-2.016h6v2.016h-6z"/>
		</symbol>
	</defs>
</svg>